# xmcd
#
# Track frame offsets:
#   150
#   26915
#   42966
#   63969
#   99679
#   128536
#   156977
#   191412
#   209349
#   241627
#   267297
#   282929
#
# Disc length: 4240 seconds
#
# Revision: 0
# Processed by: cddbd v1.5.2PL0 Copyright (c) Steve Scherf et al.
# Submitted via: GXTranscoder 2.0.1939
#
DISCID=a5108e0c
DTITLE=James Siegel - Getäuscht CD2
DYEAR=2006
DGENRE=Blues
TTITLE0=02-01
TTITLE1=02-02
TTITLE2=02-03
TTITLE3=02-04
TTITLE4=02-05
TTITLE5=02-06
TTITLE6=02-07
TTITLE7=02-08
TTITLE8=02-09
TTITLE9=02-10
TTITLE10=02-11
TTITLE11=02-12
EXTD=
EXTT0=
EXTT1=
EXTT2=
EXTT3=
EXTT4=
EXTT5=
EXTT6=
EXTT7=
EXTT8=
EXTT9=
EXTT10=
EXTT11=
PLAYORDER=
